<svg xmlns="http://www.w3.org/2000/svg" width="27.055" height="22.39" viewBox="0 0 27.055 22.39">
  <g id="Group_18" data-name="Group 18" transform="translate(0 -16.837)">
    <path id="Path_33" data-name="Path 33" d="M21.937,32.765H9.576a1.052,1.052,0,0,1-1.006-.745l-4-13.08H1.052a1.052,1.052,0,1,1,0-2.1h4.3a1.052,1.052,0,0,1,1.006.744l4,13.08H21.238l3.182-7.573H22.61a1.052,1.052,0,0,1,0-2.1H26a1.052,1.052,0,0,1,.97,1.46l-4.066,9.677A1.052,1.052,0,0,1,21.937,32.765Z" transform="translate(0)" fill="#fff"/>
    <circle id="Ellipse_14" data-name="Ellipse 14" cx="1.852" cy="1.852" r="1.852" transform="translate(6.83 35.524)" fill="#fff"/>
    <circle id="Ellipse_15" data-name="Ellipse 15" cx="1.852" cy="1.852" r="1.852" transform="translate(20.571 35.524)" fill="#fff"/>
  </g>
</svg>
