<svg xmlns="http://www.w3.org/2000/svg" width="15.132" height="19.251" viewBox="0 0 15.132 19.251">
  <g id="location-983" transform="translate(99.034 128.635)">
    <g id="Group_18" data-name="Group 18" transform="translate(-98.434 -128.035)">
      <path id="Path_32" data-name="Path 32" d="M34.568,18.228l-5.311-6.255a6.966,6.966,0,1,1,10.622,0Zm0-17.144A6.383,6.383,0,0,0,29.7,11.6l4.87,5.736,4.87-5.736a6.383,6.383,0,0,0-4.87-10.514Zm0,9.193A3.035,3.035,0,1,1,37.6,7.24,3.039,3.039,0,0,1,34.568,10.276Zm0-5.492A2.456,2.456,0,1,0,37.024,7.24,2.459,2.459,0,0,0,34.568,4.784Z" transform="translate(-27.602 -0.504)" fill="#fff" stroke="#fff" stroke-width="1.2"/>
    </g>
  </g>
</svg>

