<svg xmlns="http://www.w3.org/2000/svg" width="250.609" height="75.522" viewBox="0 0 250.609 75.522">
  <g id="Group_22" data-name="Group 22" transform="translate(-572 -33.87)">
    <g id="Group_21" data-name="Group 21" transform="translate(572 33.87)">
      <path id="path8" d="M260.906,203.144c-14.563,10.734-35.672,16.461-53.846,16.461a97.437,97.437,0,0,1-65.78-25.1c-1.364-1.233-.142-2.913,1.495-1.953a132.394,132.394,0,0,0,65.813,17.454,130.87,130.87,0,0,0,50.2-10.265c2.465-1.047,4.527,1.615,2.116,3.4" transform="translate(-105.433 -144.083)" fill="#f90" fill-rule="evenodd"/>
      <path id="path10" d="M590.1,188.384c-1.854-2.378-12.305-1.124-17-.567-1.429.175-1.647-1.069-.36-1.964,8.323-5.858,21.981-4.167,23.574-2.2s-.414,15.665-8.236,22.2c-1.2,1-2.345.469-1.811-.862,1.756-4.385,5.694-14.214,3.829-16.6" transform="translate(-428.57 -136.251)" fill="#f90" fill-rule="evenodd"/>
      <path id="path12" d="M573.688,11.575V5.88a1.4,1.4,0,0,1,1.44-1.44h25.494a1.419,1.419,0,0,1,1.473,1.44v4.876c-.011.818-.7,1.887-1.92,3.578L586.964,33.2c4.909-.12,10.091.611,14.542,3.12a2.594,2.594,0,0,1,1.353,2.215v6.076c0,.829-.916,1.8-1.876,1.3a29.368,29.368,0,0,0-26.934.044c-.884.48-1.811-.48-1.811-1.309V38.869a6.886,6.886,0,0,1,.938-3.916L588.48,13H575.16a1.41,1.41,0,0,1-1.473-1.429" transform="translate(-428.829 -3.328)" fill="#fff" fill-rule="evenodd"/>
      <path id="path14" d="M179.6,44.919h-7.756a1.465,1.465,0,0,1-1.385-1.32V3.793a1.456,1.456,0,0,1,1.495-1.429h7.233A1.461,1.461,0,0,1,180.6,3.695V8.9h.142c1.887-5.029,5.432-7.374,10.211-7.374,4.854,0,7.887,2.345,10.069,7.374a11.455,11.455,0,0,1,19.69-3.022c2.454,3.349,1.953,8.214,1.953,12.48l-.011,25.123a1.465,1.465,0,0,1-1.495,1.44h-7.745a1.474,1.474,0,0,1-1.4-1.44v-21.1c0-1.68.153-5.869-.218-7.462-.578-2.673-2.313-3.425-4.56-3.425a5.152,5.152,0,0,0-4.636,3.262c-.8,2.007-.72,5.367-.72,7.625v21.1a1.465,1.465,0,0,1-1.495,1.44h-7.745a1.466,1.466,0,0,1-1.4-1.44l-.011-21.1c0-4.44.731-10.974-4.778-10.974-5.574,0-5.356,6.371-5.356,10.974v21.1a1.465,1.465,0,0,1-1.495,1.44" transform="translate(-127.742 -1.142)" fill="#fff" fill-rule="evenodd"/>
      <path id="path16" d="M726.765,1.524c11.509,0,17.738,9.883,17.738,22.45,0,12.142-6.884,21.774-17.738,21.774-11.3,0-17.454-9.883-17.454-22.2,0-12.392,6.229-22.025,17.454-22.025m.065,8.127c-5.716,0-6.076,7.789-6.076,12.643s-.076,15.251,6.011,15.251c6.011,0,6.294-8.378,6.294-13.483A36.8,36.8,0,0,0,731.9,13.5c-.873-2.771-2.607-3.851-5.073-3.851" transform="translate(-531.551 -1.142)" fill="#fff" fill-rule="evenodd"/>
      <path id="path18" d="M881.982,44.919h-7.724a1.474,1.474,0,0,1-1.4-1.44l-.011-39.817a1.467,1.467,0,0,1,1.495-1.3h7.189a1.484,1.484,0,0,1,1.385,1.113V9.564h.142c2.171-5.444,5.214-8.04,10.571-8.04a10.177,10.177,0,0,1,9.054,4.691c2.029,3.185,2.029,8.542,2.029,12.392V43.665a1.49,1.49,0,0,1-1.495,1.255h-7.778a1.469,1.469,0,0,1-1.375-1.255V22.043c0-4.353.5-10.723-4.854-10.723a5.069,5.069,0,0,0-4.484,3.185,17.619,17.619,0,0,0-1.233,7.538V43.479a1.491,1.491,0,0,1-1.516,1.44" transform="translate(-654.107 -1.142)" fill="#fff" fill-rule="evenodd"/>
      <path id="path28" d="M428.591,24.763c0,3.022.076,5.542-1.451,8.225a6.3,6.3,0,0,1-5.367,3.524c-2.978,0-4.724-2.269-4.724-5.618,0-6.611,5.924-7.811,11.542-7.811v1.68m7.822,18.905a1.62,1.62,0,0,1-1.833.185,18.9,18.9,0,0,1-4.451-5.171c-4.254,4.342-7.276,5.64-12.785,5.64-6.534,0-11.607-4.025-11.607-12.087a13.163,13.163,0,0,1,8.269-12.676c4.211-1.855,10.091-2.182,14.585-2.694v-1c0-1.844.142-4.025-.949-5.618a5.163,5.163,0,0,0-4.353-2.018c-2.956,0-5.585,1.516-6.229,4.658a1.622,1.622,0,0,1-1.353,1.418l-7.516-.807a1.367,1.367,0,0,1-1.156-1.625C408.759,2.749,417.006,0,424.38,0c3.774,0,8.705,1,11.683,3.862,3.774,3.524,3.414,8.225,3.414,13.342V29.29c0,3.633,1.505,5.225,2.924,7.189a1.467,1.467,0,0,1-.033,2.062c-1.582,1.32-4.4,3.774-5.945,5.149l-.011-.022" transform="translate(-304.056 0)" fill="#fff" fill-rule="evenodd"/>
      <path id="path30" d="M22.854,24.763c0,3.022.076,5.542-1.451,8.225a6.289,6.289,0,0,1-5.367,3.524c-2.978,0-4.713-2.269-4.713-5.618,0-6.611,5.923-7.811,11.531-7.811v1.68m7.822,18.905a1.62,1.62,0,0,1-1.833.185,19.1,19.1,0,0,1-4.451-5.171c-4.254,4.342-7.265,5.64-12.785,5.64C5.084,44.323,0,40.3,0,32.236A13.179,13.179,0,0,1,8.269,19.56c4.211-1.855,10.091-2.182,14.585-2.694v-1c0-1.844.142-4.025-.938-5.618a5.19,5.19,0,0,0-4.353-2.018c-2.956,0-5.6,1.516-6.24,4.658A1.623,1.623,0,0,1,9.982,14.3l-7.527-.807A1.374,1.374,0,0,1,1.3,11.869C3.033,2.749,11.269,0,18.643,0c3.774,0,8.705,1,11.683,3.862C34.1,7.386,33.741,12.087,33.741,17.2V29.29c0,3.633,1.505,5.225,2.924,7.189a1.457,1.457,0,0,1-.022,2.062c-1.582,1.32-4.4,3.774-5.945,5.149l-.022-.022" transform="translate(0 0)" fill="#fff" fill-rule="evenodd"/>
    </g>
  </g>
</svg>
